<svg version="1.1" xmlns="http://www.w3.org/2000/svg" viewBox="273 391 1500 364">
<path transform="translate(0,0)" fill="rgb(0,0,0)" d="M 564.906 411.414 C 577.26 410.577 597.331 411.184 610.434 411.159 L 696.621 411.098 C 708.463 411.161 717.008 411.169 725.936 420.141 C 739.262 433.535 734.706 459.09 716.659 465.659 C 707.572 468.966 692.093 467.918 681.946 467.884 L 613.459 467.67 C 598.659 467.644 573.774 466.429 560.017 470.054 C 529.142 478.187 534.762 511.137 524.813 534.37 C 517.562 551.306 510.956 559.467 497.672 571.761 C 511.009 583.79 517.608 592.473 524.861 609.074 C 533.42 628.073 529.801 655.341 548.962 668.276 C 563.207 677.892 590.616 675.321 607.567 675.267 L 679.727 675.027 C 693.907 674.986 713.823 672.489 724.436 682.429 C 741.884 698.769 733.708 728.917 709.309 731.169 C 693.904 732.59 677.702 731.984 662.394 731.975 L 568.311 731.893 C 553.34 732.068 537.116 727.286 524.03 720.165 C 501.567 708.176 485.097 687.39 478.564 662.78 C 473.565 643.37 475.777 626.417 457.475 611.345 C 441.711 598.362 423.342 599.805 404.26 599.787 C 397.831 599.781 385.962 599.161 379.76 600.032 C 349.145 604.333 353.727 624.189 352.526 645.773 C 350.274 667.565 358.97 704.348 345.663 722.606 C 337.311 734.064 314.821 734.595 305.135 724.888 C 298.166 717.903 295.817 711.698 295.391 701.671 C 294.782 687.312 295.461 673.55 295.346 659.24 C 295.032 626.217 292.539 597.748 316.026 571.336 C 348.076 535.293 384.053 544.479 426.299 542.789 C 448.338 541.908 467.86 529.049 473.146 507.125 C 475.32 498.106 476.458 487.771 479.097 478.822 C 482.921 465.825 489.439 453.778 498.226 443.467 C 515.524 423.517 538.886 413.346 564.906 411.414 z"/>
<path fill="rgb(0,0,0)" fill-rule="evenodd" d="M 880.408 501.169 C 917.957 496.975 951.847 523.884 956.273 561.407 C 960.698 598.929 933.998 632.984 896.504 637.641 C 858.681 642.338 824.263 615.353 819.798 577.502 C 815.334 539.652 842.531 505.4 880.408 501.169 z M 882.98 523.312 C 940.96 519.737 945.637 604.807 895.918 615.26 C 883.65 615.633 874.771 615.895 863.975 608.295 C 843.23 593.691 840.547 559.697 854.824 539.846 C 862.054 529.793 870.997 525.3 882.98 523.312 z"/>
<path fill="rgb(0,0,0)" fill-rule="evenodd" d="M 1033.49 529.348 C 1046.4 529.986 1057.83 531.995 1067.58 541.247 C 1089.18 561.738 1089.36 603.048 1069.1 624.125 C 1060.68 633.056 1049.05 638.259 1036.78 638.581 C 1021.6 638.864 1011.45 632.626 1001.06 622.534 L 1001.16 654.5 L 1001.2 683.581 L 975.639 683.647 L 975.631 531.185 L 1001.28 531.318 L 1000.98 544.489 C 1011.93 533.567 1018.65 530.955 1033.49 529.348 z M 1024.46 551.311 C 1068.71 549.352 1069 610.57 1032.5 616.517 C 995.869 617.951 987.85 561.864 1024.46 551.311 z"/>
<path transform="translate(0,0)" fill="rgb(7,193,96)" d="M 554.513 543.174 C 579.237 541.821 607.763 543.01 633.585 542.878 C 648.845 542.8 705.738 540.779 717.259 545.552 C 738.931 554.529 741.421 590.194 711.15 599.773 C 673.676 601.551 633.604 598.903 595.985 600.026 C 586.459 600.31 552.327 601.064 545.845 596.886 C 521.371 581.11 528.562 550.552 554.513 543.174 z"/>
<path fill="rgb(0,0,0)" fill-rule="evenodd" d="M 1138.11 530.168 C 1142.24 529.8 1146.38 529.62 1150.53 529.628 C 1189.19 530.062 1201.23 557.831 1200.47 591.837 L 1121.42 591.825 C 1128.65 618.497 1148.5 627.71 1170.89 606.601 C 1174.31 603.383 1175.2 604.237 1179.46 604.163 L 1198.03 604.08 C 1182.13 653.208 1110.5 648.108 1098.49 600.507 C 1090.21 567.72 1103.72 538.521 1138.11 530.168 z M 1143.69 550.088 C 1161.67 548.836 1171.57 556.123 1174.98 573.897 L 1156.25 573.947 L 1121.94 573.911 C 1126.48 559.783 1129.08 555.016 1143.69 550.088 z"/>
<path transform="translate(0,0)" fill="rgb(0,0,0)" d="M 1657.44 495.395 L 1682.99 495.224 L 1682.8 575.429 L 1719.72 531.241 L 1752.17 531.274 L 1706.32 582.546 C 1715.1 593.272 1724.86 604.219 1733.99 614.739 C 1739.85 621.997 1746.89 629.839 1753.02 636.996 L 1721.16 637.168 C 1711.91 626.526 1692.52 600.354 1682.86 591.661 L 1682.87 636.973 L 1657.52 637.044 C 1656.08 592.504 1657.41 540.452 1657.44 495.395 z"/>
<path transform="translate(0,0)" fill="rgb(0,0,0)" d="M 1585.31 551.94 Q 1570.75 551.94 1565.33 563.84 Q 1562.52 570.13 1562.52 579.9 L 1562.52 637.0 L 1534.0 637.0 L 1534.0 531.71 L 1561.61 531.71 L 1561.61 547.1 Q 1567.13 538.97 1572.05 535.39 Q 1580.89 529.0 1594.44 529.0 Q 1611.41 529.0 1622.21 537.56 Q 1633.0 546.13 1633.0 565.97 L 1633.0 637.0 L 1603.68 637.0 L 1603.68 572.84 Q 1603.68 564.52 1601.37 560.06 Q 1597.16 551.94 1585.31 551.94 Z"/>
<path transform="translate(0,0)" fill="rgb(0,0,0)" d="M 1270.31 551.94 Q 1255.75 551.94 1250.33 563.84 Q 1247.52 570.13 1247.52 579.9 L 1247.52 637.0 L 1219.0 637.0 L 1219.0 531.71 L 1246.61 531.71 L 1246.61 547.1 Q 1252.13 538.97 1257.05 535.39 Q 1265.89 529.0 1279.44 529.0 Q 1296.41 529.0 1307.21 537.56 Q 1318.0 546.13 1318.0 565.97 L 1318.0 637.0 L 1288.68 637.0 L 1288.68 572.84 Q 1288.68 564.52 1286.37 560.06 Q 1282.16 551.94 1270.31 551.94 Z"/>
<path transform="translate(0,0)" fill="rgb(0,0,0)" d="M 1394.77 502.876 L 1420.2 502.807 L 1420.23 616.936 L 1467.32 617.004 L 1467.38 637.047 L 1394.79 637.068 L 1394.77 502.876 z"/>
<path transform="translate(0,0)" fill="rgb(7,193,96)" d="M 1343.01 531.338 L 1368.98 531.338 L 1368.99 637.021 L 1342.9 637.036 L 1343.01 531.338 z"/>
<path transform="translate(0,0)" fill="rgb(7,193,96)" d="M 1351.48 488.394 C 1356.96 486.701 1362.93 488.141 1367.04 492.149 C 1371.15 496.156 1372.74 502.089 1371.18 507.613 C 1369.63 513.137 1365.17 517.369 1359.58 518.642 C 1351.37 520.51 1343.15 515.552 1340.97 507.416 C 1338.79 499.281 1343.43 490.879 1351.48 488.394 z"/>
<path transform="translate(0,0)" fill="rgb(0,0,0)" d="M 1483.39 531.338 C 1491.76 531.222 1500.46 531.38 1508.85 531.414 C 1508.86 564.021 1510.1 605.239 1508.56 637.086 L 1483.3 637.044 C 1484.03 602.521 1483.48 566.016 1483.39 531.338 z"/>
<path transform="translate(0,0)" fill="rgb(0,0,0)" d="M 1491.48 488.394 C 1496.96 486.701 1502.93 488.141 1507.04 492.149 C 1511.15 496.156 1512.74 502.089 1511.18 507.613 C 1509.63 513.137 1505.17 517.369 1499.58 518.642 C 1491.37 520.51 1483.15 515.552 1480.97 507.416 C 1478.79 499.281 1483.43 490.879 1491.48 488.394 z"/>
</svg>